<svg width="210" height="57" viewBox="0 0 210 57" fill="none" xmlns="http://www.w3.org/2000/svg">
<path d="M2.1412 31.8334C1.93663 30.3721 1.72232 28.9109 1.52261 27.4496C1.39597 26.5096 1.28881 25.5647 1.16217 24.6246C0.986823 23.3046 0.796865 21.9846 0.616645 20.6695C0.446167 19.4031 0.28056 18.1367 0.110082 16.8654C-0.00681701 15.9789 -0.167552 15.073 0.446168 14.3034C0.991697 13.6166 1.5908 12.9785 2.16556 12.3112C3.24687 11.0546 4.31845 9.78816 5.39977 8.53636C6.36418 7.42095 7.34808 6.32015 8.3125 5.20961C9.58865 3.73376 10.8551 2.24816 12.1361 0.782049C12.6524 0.187812 13.5437 -0.216458 14.3718 0.148852C16.2422 0.976887 18.0833 1.86337 19.9245 2.74985C23.7529 4.59589 27.5716 6.46627 31.4098 8.28795C31.6582 8.40484 32.0966 8.2782 32.3888 8.14182C34.2738 7.25534 36.1394 6.32988 38.0097 5.42392C41.5508 3.7094 45.0919 1.99488 48.6378 0.285233C49.6461 -0.201846 50.5666 -0.0752043 51.3119 0.743089C52.666 2.22381 53.9713 3.75324 55.3011 5.26319C56.4944 6.61727 57.6926 7.9616 58.8762 9.32055C60.2059 10.85 61.5211 12.394 62.8459 13.9283C63.6204 14.8294 63.6934 15.8425 63.4743 16.9774C63.2551 18.1318 63.2112 19.3154 63.0505 20.4844C62.8849 21.6875 62.6462 22.8857 62.4757 24.0888C62.2225 25.8666 62.0081 27.6494 61.7695 29.4321C61.6623 30.2504 61.5357 31.0638 61.4383 31.8821C61.3457 32.6419 61.3311 33.4164 61.1752 34.1665C61.0924 34.561 60.8538 34.975 60.5664 35.2575C58.2625 37.4981 55.9294 39.7046 53.606 41.9208C52.3104 43.1531 51.0683 44.4487 49.7045 45.6031C48.7401 46.4165 47.6198 47.04 46.5629 47.7365C43.7914 49.5679 41.0248 51.414 38.2387 53.221C36.4365 54.39 34.6051 55.5152 32.7882 56.6598C31.9553 57.181 31.1614 57.0105 30.4016 56.5088C27.4206 54.5361 24.4543 52.5489 21.4734 50.5811C19.0964 49.0127 16.6903 47.4881 14.3231 45.9002C13.7191 45.4959 13.2076 44.9455 12.667 44.4536C11.6052 43.4843 10.5287 42.5248 9.4961 41.5214C7.70852 39.7923 5.96478 38.0144 4.17232 36.295C3.51964 35.6667 2.72083 35.165 2.50164 34.2201C2.31655 33.4407 2.22401 32.6419 2.08762 31.8529C2.10711 31.8382 2.12659 31.8334 2.1412 31.8334ZM29.6709 33.0218C24.1913 28.4433 18.7214 23.8745 13.1443 19.218C14.138 26.7629 15.117 34.1665 16.1058 41.6724C20.6405 38.7791 25.1216 35.9248 29.6709 33.0218ZM33.9962 33.0657C38.4968 35.9394 42.9585 38.7889 47.5029 41.687C48.4868 34.1957 49.4512 26.8359 50.44 19.3252C44.8873 23.967 39.4905 28.4774 33.9962 33.0657ZM33.1195 30.4257C38.6283 25.852 44.0252 21.3758 49.4658 16.8557C48.2579 16.5245 47.2058 16.2322 46.144 15.9497C41.9405 14.8245 37.7418 13.7091 33.5383 12.5791C33.1682 12.4768 33.173 12.6911 33.173 12.9396C33.1584 15.4431 33.1341 17.9467 33.1292 20.4503C33.1195 23.4215 33.1243 26.3976 33.1195 29.3687C33.1195 29.6756 33.1195 29.9776 33.1195 30.4257ZM14.2354 16.8216C19.7053 21.3758 25.0778 25.8472 30.572 30.4208C30.572 29.4856 30.572 28.7648 30.572 28.0439C30.5769 23.0367 30.5866 18.0295 30.5915 13.0175C30.5915 12.7691 30.6841 12.4379 30.197 12.5645C28.2194 13.0905 26.2322 13.5922 24.2546 14.1232C21.5903 14.8343 18.9357 15.56 16.2714 16.2809C15.6382 16.4563 14.9952 16.6219 14.2354 16.8216ZM33.1146 51.3506C33.2802 51.2825 33.4068 51.2484 33.514 51.1802C37.1671 48.7594 40.8202 46.3386 44.4684 43.9178C45.3646 43.3236 45.3598 43.3236 44.4733 42.7586C41.1904 40.6544 37.9074 38.5453 34.6245 36.446C34.1472 36.144 33.6601 35.8566 33.1146 35.5206C33.1146 40.8297 33.1146 46.0463 33.1146 51.3506ZM30.499 35.5206C30.3772 35.5839 30.3041 35.6131 30.2359 35.6569C26.3929 38.1216 22.5498 40.5862 18.697 43.0459C18.3122 43.2895 18.4438 43.421 18.7263 43.6109C21.3711 45.3693 24.0062 47.1325 26.651 48.8909C27.9077 49.7238 29.1692 50.547 30.499 51.4237C30.499 46.0804 30.499 40.8297 30.499 35.5206ZM14.7809 4.94658C14.7273 5.01964 14.703 5.03913 14.6981 5.06348C14.1818 8.00544 13.6655 10.9523 13.1492 13.8942C13.0761 14.318 13.1979 14.4398 13.646 14.318C16.5539 13.5435 19.4666 12.7934 22.3794 12.0287C23.8308 11.6488 25.2823 11.2543 26.953 10.811C22.7982 8.80425 18.7945 6.88029 14.7809 4.94658ZM36.8895 10.66C36.8895 10.7233 36.8895 10.7867 36.8895 10.85C41.4339 12.0531 45.9784 13.2513 50.591 14.469C50.5472 14.0793 50.5277 13.8163 50.4838 13.5581C50.0162 10.8354 49.5292 8.1126 49.0762 5.38496C49.0129 5.00016 48.9447 4.94658 48.5891 5.11706C45.3646 6.69033 42.1304 8.24898 38.8962 9.7979C38.2387 10.1145 37.5568 10.3726 36.8895 10.66ZM50.4546 38.8619C50.6251 38.7596 50.7663 38.7012 50.8638 38.6038C52.8851 36.6701 54.9114 34.7364 56.9182 32.7832C57.0351 32.6663 57.0838 32.3838 57.0351 32.2133C56.8743 31.6629 56.6649 31.1271 56.4603 30.5913C55.3303 27.6786 54.1954 24.7658 53.0556 21.8531C53.0069 21.7313 52.9338 21.6193 52.8754 21.5024C52.8316 21.5073 52.7829 21.517 52.739 21.5219C51.9792 27.2743 51.2242 33.0267 50.4546 38.8619ZM10.9232 21.5803C10.8697 21.5755 10.8112 21.5706 10.7576 21.5657C10.6992 21.6924 10.631 21.8141 10.5774 21.9457C10.2072 22.9052 9.83706 23.8647 9.46688 24.8243C8.52681 27.2646 7.57701 29.7048 6.6613 32.1548C6.59311 32.3399 6.6954 32.6809 6.84152 32.8319C7.75236 33.7573 8.69729 34.6487 9.63249 35.5498C10.782 36.6555 11.9412 37.7611 13.2174 38.9837C12.4332 33.0608 11.6782 27.323 10.9232 21.5803ZM9.71529 17.4158C8.21021 17.3184 6.85126 17.2453 5.48744 17.1431C4.50354 17.07 4.52302 17.0554 4.64966 18.0101C4.94678 20.2604 5.21955 22.5155 5.50692 24.7707C5.5946 25.4478 5.69201 26.1248 5.78943 26.8018C5.84788 26.8116 5.90633 26.8213 5.96478 26.8311C7.20196 23.7089 8.44401 20.5916 9.71529 17.4158ZM57.7754 26.9674C57.8534 26.6606 57.9021 26.5193 57.9167 26.3781C58.3063 23.3825 58.6911 20.387 59.0711 17.3915C59.0808 17.3038 58.9542 17.109 58.8957 17.1138C57.3565 17.1918 55.8222 17.2843 54.2879 17.4061C54.21 17.4109 54.0541 17.6935 54.0882 17.7811C54.9991 20.1045 55.9343 22.423 56.8646 24.7415C57.1373 25.438 57.4247 26.1248 57.7754 26.9674ZM57.8339 14.5761C55.9099 12.3599 54.0687 10.2411 52.2325 8.12721C52.174 8.50713 52.2373 8.82374 52.2909 9.14521C52.588 10.8987 52.8705 12.6473 53.1871 14.3959C53.2164 14.5518 53.4355 14.8002 53.5622 14.7953C54.9504 14.7515 56.3337 14.6589 57.8339 14.5761ZM6.00861 14.6054C7.39192 14.6736 8.74113 14.7564 10.0903 14.7953C10.2511 14.8002 10.5287 14.5664 10.5579 14.4105C10.8794 12.7204 11.1668 11.0205 11.459 9.32543C11.5224 8.94551 11.5662 8.56071 11.649 7.9957C9.68607 10.2898 7.85952 12.433 6.00861 14.6054Z" fill="#ECF2FA"/>
<path d="M203.3 12.662C203.3 11.9947 203.3 11.454 203.3 10.9133C203.29 8.90658 203.256 6.89981 203.286 4.89792C203.31 3.17853 204.362 1.85367 206.232 1.72216C207.606 1.62474 209.092 2.78399 209.14 4.15269C209.243 6.93391 209.282 9.71513 209.296 12.4964C209.32 16.3151 209.282 20.1338 209.311 23.9525C209.33 26.3148 208.902 28.5895 208.015 30.7716C206.627 34.186 204.304 36.8211 201.035 38.5307C198.118 40.0602 195 40.6496 191.683 40.2307C187.714 39.729 184.509 37.8147 181.932 34.8923C179.974 32.6712 178.8 30.0069 178.391 27.0357C178.104 24.9461 178.284 22.915 178.81 20.8644C179.297 18.9794 180.105 17.2746 181.24 15.7354C182.775 13.6459 184.703 12.0336 187.1 10.928C189.131 9.98789 191.225 9.53491 193.427 9.44236C195.867 9.34495 198.161 9.9538 200.358 10.9377C201.167 11.2981 201.893 11.8437 202.657 12.3015C202.837 12.4087 203.018 12.5012 203.3 12.662ZM203.276 24.8097C203.383 19.671 199.014 15.3019 193.724 15.3312C188.493 15.3604 184.353 19.4859 184.187 24.537C184.012 29.9387 188.62 34.4442 193.602 34.3906C198.877 34.3321 203.349 30.4452 203.276 24.8097Z" fill="#ECF2FA"/>
<path d="M83.5322 19.6613C83.5322 19.8123 83.5322 19.9682 83.5322 20.1191C83.5322 25.7206 83.5371 31.3171 83.5273 36.9185C83.5273 38.0729 83.2059 39.1104 82.1538 39.7777C81.2429 40.3573 80.2785 40.4937 79.2995 40.0212C78.2376 39.5098 77.6239 38.6379 77.6239 37.4494C77.6093 29.0911 77.6191 20.7329 77.6093 12.3746C77.6093 10.1876 79.5917 8.95528 81.3744 9.55439C82.1635 9.81741 82.8698 10.4652 83.4884 11.0643C85.9286 13.4364 88.3105 15.8669 90.7312 18.2585C91.6372 19.1547 92.6795 19.8707 94.0141 19.3106C94.6766 19.033 95.2854 18.541 95.8066 18.0344C98.3638 15.5309 100.877 12.9834 103.42 10.4604C105.022 8.86761 107.268 9.06731 108.349 10.9669C108.665 11.5271 108.812 12.2577 108.812 12.9152C108.836 20.3724 108.821 27.8345 108.797 35.2917C108.792 36.261 108.778 37.2546 108.573 38.1995C108.276 39.5926 107.087 40.3817 105.431 40.2599C104.36 40.182 103.356 39.4367 103.03 38.1119C102.923 37.6686 102.869 37.1962 102.869 36.7383C102.86 31.2976 102.864 25.8618 102.86 20.4211C102.86 20.2214 102.811 20.0217 102.786 19.822C102.704 19.7684 102.626 19.7149 102.543 19.6564C102.007 20.2604 101.501 20.8936 100.926 21.4635C99.9516 22.4279 99.0165 23.4703 97.9108 24.2593C96.2742 25.4332 94.4135 25.9982 92.3337 25.6913C90.663 25.4429 89.1482 24.9071 87.911 23.7333C86.6349 22.5253 85.3685 21.3076 84.1118 20.0802C83.956 19.9292 83.8683 19.7051 83.7514 19.5152C83.6734 19.559 83.6004 19.6077 83.5322 19.6613Z" fill="#ECF2FA"/>
<path d="M143.686 25.1214C143.492 33.9278 137.028 39.7143 129.41 40.3183C119.99 41.0635 112.289 33.2264 112.757 24.1911C113.181 16.0909 119.673 9.0575 129.206 9.41793C136.877 9.71505 143.774 16.0958 143.686 25.1214ZM137.812 25.175C138.046 19.5589 133.205 15.4626 128.421 15.3895C123.171 15.3067 118.539 19.4274 118.685 25.1896C118.806 30.0116 122.825 34.4051 128.29 34.4051C133.419 34.3954 137.705 30.2649 137.812 25.175Z" fill="#ECF2FA"/>
<path d="M160.306 40.3768C151.938 40.2112 145.221 33.5918 145.002 25.4186C144.758 16.3686 151.733 9.33034 160.856 9.42776C168.951 9.51543 176.009 15.9254 175.941 25.0192C175.883 33.5869 169.205 40.3183 160.306 40.3768ZM170.047 24.8195C170.106 19.6662 165.542 15.3604 160.525 15.3847C155.026 15.414 150.837 19.7003 150.934 25.1702C151.022 30.0653 155.474 34.6049 160.69 34.4052C165.776 34.2104 170.12 30.2894 170.047 24.8195Z" fill="#ECF2FA"/>
<path d="M101.637 55.2181C101.476 55.1889 101.364 55.1353 101.272 55.1596C100.405 55.3788 100.073 54.7894 99.7227 54.1903C99.3087 53.4792 98.8703 52.7875 98.4271 52.091C98.2274 51.7793 97.1023 51.526 96.8197 51.7355C96.7516 51.789 96.7418 51.9498 96.7418 52.0618C96.7369 52.8898 96.7272 53.7227 96.7418 54.5508C96.7516 55.0281 96.7223 55.408 96.0696 55.1742C95.9138 55.1207 95.7287 55.1499 95.5485 55.1401C95.5485 52.2956 95.5485 49.4754 95.5485 46.5822C97.0584 46.6747 98.6073 46.3873 100.088 46.9913C101.052 47.381 101.228 48.4769 101.126 49.4852C101.028 50.4301 100.575 51.112 99.5864 51.3361C99.5182 51.3507 99.4694 51.4383 99.4402 51.4627C100.151 52.6122 100.858 53.7422 101.554 54.8771C101.608 54.9599 101.603 55.0768 101.637 55.2181ZM96.7369 49.076C96.7369 49.4657 96.7077 49.8553 96.7515 50.2401C96.7662 50.3765 96.9707 50.5811 97.0974 50.5908C97.5893 50.6249 98.091 50.6054 98.583 50.5811C99.5133 50.5324 99.9565 50.0307 99.9565 49.0809C99.9565 48.1506 99.5571 47.7463 98.583 47.683C98.3979 47.6683 98.2128 47.6391 98.0228 47.6245C96.7321 47.5368 96.7321 47.5368 96.7321 48.7984C96.7369 48.8909 96.7369 48.9835 96.7369 49.076Z" fill="#ECF2FA"/>
<path d="M186.028 51.4822C186.803 52.7096 187.548 53.8884 188.298 55.0817C187.339 55.335 187.012 55.1937 186.511 54.3998C185.98 53.5571 185.488 52.6706 184.83 51.94C184.587 51.6673 183.914 51.7696 183.432 51.7452C183.403 51.7452 183.32 52.13 183.315 52.3346C183.301 53.0993 183.281 53.864 183.32 54.6238C183.345 55.072 183.208 55.2278 182.77 55.1645C182.59 55.1353 182.4 55.1596 182.176 55.1596C182.176 54.8284 182.176 54.4972 182.176 54.166C182.176 51.7696 182.171 49.3731 182.185 46.9767C182.185 46.8452 182.375 46.6016 182.468 46.6065C183.647 46.6504 184.825 46.665 185.994 46.816C187.012 46.9475 187.616 47.6684 187.723 48.6328C187.865 49.8992 187.446 50.7905 186.486 51.2484C186.345 51.3068 186.209 51.3848 186.028 51.4822ZM183.306 49.0955C183.306 50.6054 183.306 50.6054 184.82 50.5908C184.957 50.5908 185.088 50.5908 185.225 50.5811C186.023 50.5226 186.506 50.0209 186.53 49.2319C186.564 48.2431 186.252 47.8291 185.361 47.7024C185.044 47.6586 184.723 47.6294 184.401 47.6148C183.306 47.5563 183.306 47.5563 183.306 48.6522C183.306 48.8032 183.306 48.9494 183.306 49.0955Z" fill="#ECF2FA"/>
<path d="M154.402 46.738C153.672 47.5806 152.946 48.4233 152.215 49.2611C151.986 49.5241 151.777 49.8115 151.504 50.0209C150.934 50.4641 151.236 50.7954 151.563 51.185C152.507 52.3248 153.428 53.4792 154.354 54.6335C154.451 54.7553 154.519 54.9014 154.597 55.0378C153.925 55.3642 153.204 55.1937 152.775 54.6384C152.02 53.6643 151.265 52.6901 150.491 51.7354C150.423 51.6478 150.067 51.6429 150.038 51.7013C149.824 52.0959 149.575 52.5001 149.507 52.9288C149.419 53.5035 149.468 54.1026 149.497 54.692C149.517 55.0524 149.419 55.2083 149.035 55.1547C148.83 55.1255 148.616 55.1742 148.353 55.1888C148.353 54.994 148.353 54.7943 148.353 54.5995C148.353 52.0715 148.367 49.5387 148.348 47.0107C148.343 46.4068 148.776 46.5967 149.039 46.6016C149.19 46.6016 149.463 46.8549 149.468 47.0059C149.507 48.0628 149.488 49.1198 149.488 50.1768C149.488 50.3131 149.502 50.4495 149.522 50.7077C150.057 50.094 150.501 49.5825 150.949 49.0662C151.602 48.3161 152.196 47.4978 152.936 46.8403C153.243 46.5675 153.862 46.6503 154.339 46.5675C154.354 46.6308 154.378 46.6844 154.402 46.738Z" fill="#ECF2FA"/>
<path d="M170.091 50.1085C170.091 50.3521 170.115 50.6443 170.076 50.9317C170.062 51.0193 169.862 51.1363 169.745 51.1363C168.82 51.1509 167.894 51.1362 166.969 51.1606C166.852 51.1655 166.652 51.3652 166.647 51.4821C166.618 52.2176 166.618 52.9531 166.647 53.6885C166.652 53.8152 166.867 54.0295 166.988 54.0344C168.099 54.0587 169.214 54.0344 170.33 54.0636C170.466 54.0685 170.715 54.3023 170.705 54.4192C170.685 54.6871 170.973 55.1498 170.359 55.1595C169.019 55.1839 167.685 55.2229 166.345 55.2375C166.043 55.2423 165.746 55.1595 165.43 55.1108C165.43 52.2809 165.43 49.4656 165.43 46.6015C166.131 46.6015 166.842 46.6015 167.548 46.6015C168.406 46.6015 169.268 46.6162 170.125 46.5918C170.539 46.5821 170.676 46.7136 170.676 47.1422C170.676 47.566 170.51 47.6682 170.135 47.6634C169.088 47.6536 168.04 47.6488 166.998 47.678C166.871 47.6829 166.662 47.8923 166.652 48.0189C166.613 48.5401 166.652 49.0613 166.628 49.5825C166.608 49.977 166.798 50.1085 167.154 50.1085C168.118 50.1085 169.078 50.1085 170.091 50.1085Z" fill="#ECF2FA"/>
<path d="M111.831 55.1498C112.119 54.3218 112.387 53.5814 112.64 52.8362C113.288 50.9366 113.936 49.0321 114.564 47.1276C114.681 46.7672 114.856 46.66 115.241 46.6259C116.035 46.5529 116.371 46.811 116.619 47.6196C117.374 50.0842 118.271 52.5001 119.108 54.9404C119.133 55.0135 119.113 55.1011 119.113 55.1839C118.709 55.0865 118.134 55.1206 117.939 54.8673C117.599 54.429 117.516 53.8006 117.277 53.2697C117.209 53.1187 116.965 52.9677 116.795 52.958C116.035 52.9141 115.261 52.9775 114.506 52.8995C113.892 52.8362 113.624 53.0798 113.492 53.6204C113.39 54.0442 113.283 54.4679 113.142 54.8819C113.103 54.994 112.952 55.1255 112.835 55.1401C112.538 55.1742 112.226 55.1498 111.831 55.1498ZM115.514 47.7073C115.012 49.1977 114.574 50.5031 114.121 51.8426C115.051 51.8426 115.933 51.8426 116.868 51.8426C116.425 50.4836 115.996 49.1782 115.514 47.7073Z" fill="#ECF2FA"/>
<path d="M135.64 48.7691C135.065 47.7754 134.232 47.376 133.073 47.5806C131.768 47.8144 131.451 48.5596 131.237 49.602C131.076 50.3764 131.149 51.2191 131.212 52.0179C131.281 52.8849 131.69 53.6983 132.479 54.0295C133.375 54.4046 134.369 54.3851 135.202 53.6983C135.333 53.5912 135.411 53.4207 135.533 53.3038C135.888 52.9628 136.2 53.2064 136.424 53.4548C136.526 53.5668 136.526 53.9078 136.429 54.0344C135.859 54.804 135.104 55.2083 134.111 55.2521C133.195 55.2911 132.303 55.2764 131.514 54.7748C130.594 54.1854 130.17 53.2892 129.98 52.2371C129.746 50.9609 129.81 49.6945 130.258 48.4914C131.076 46.2947 133.37 46.0901 135.187 46.8402C135.596 47.0107 135.922 47.376 136.283 47.6537C136.629 47.9264 136.502 48.1261 136.19 48.3258C136 48.4525 135.84 48.6083 135.64 48.7691Z" fill="#ECF2FA"/>
<path d="M80.4684 51.4286C80.4684 50.3424 80.4636 49.2611 80.4733 48.1749C80.4782 47.8242 80.3905 47.6489 79.9814 47.6684C79.3141 47.7025 78.6419 47.6927 77.9746 47.6635C77.8382 47.6586 77.5849 47.4638 77.5995 47.4102C77.6726 47.1277 77.809 46.6358 77.9308 46.6309C80.0057 46.5822 82.0856 46.587 84.1654 46.6163C84.2725 46.6163 84.4576 46.9329 84.4528 47.0985C84.4479 47.2787 84.2725 47.6002 84.1508 47.6099C83.4445 47.6732 82.7334 47.644 82.0271 47.6879C81.9005 47.6976 81.691 47.9168 81.6861 48.0386C81.6667 50.2061 81.6715 52.3735 81.6813 54.5411C81.6813 54.921 81.6472 55.1986 81.1504 55.1743C80.7412 55.1548 80.4149 55.2132 80.4538 54.5898C80.5074 53.5425 80.4636 52.4856 80.4684 51.4286C80.4636 51.4286 80.4636 51.4286 80.4684 51.4286Z" fill="#ECF2FA"/>
</svg>
