<svg width="46" height="41" viewBox="0 0 46 41" fill="none" xmlns="http://www.w3.org/2000/svg">
<path d="M1.54912 22.9069C1.40111 21.8554 1.24606 20.8039 1.10158 19.7524C1.00996 19.0759 0.932429 18.396 0.840807 17.7195C0.713946 16.7697 0.576515 15.8198 0.44613 14.8735C0.322793 13.9622 0.202979 13.0509 0.0796421 12.1361C-0.00493196 11.4982 -0.12122 10.8463 0.322793 10.2925C0.717472 9.79832 1.15091 9.33917 1.56674 8.85899C2.34905 7.95471 3.12431 7.04342 3.90662 6.14265C4.60435 5.34001 5.31618 4.54789 6.01392 3.74876C6.93719 2.68676 7.85341 1.61774 8.7802 0.562752C9.15373 0.135147 9.79861 -0.15576 10.3977 0.107112C11.7509 0.702954 13.0829 1.34086 14.4149 1.97876C17.1847 3.30714 19.9475 4.65304 22.7243 5.96389C22.9041 6.04801 23.2212 5.95688 23.4326 5.85874C24.7964 5.22084 26.1461 4.5549 27.4993 3.90298C30.0611 2.66923 32.623 1.43549 35.1884 0.20525C35.9179 -0.145246 36.5839 -0.054116 37.1231 0.534717C38.1027 1.60022 39.0471 2.70078 40.0092 3.78732C40.8725 4.76169 41.7394 5.72906 42.5957 6.70694C43.5577 7.8075 44.5092 8.91857 45.4677 10.0226C46.028 10.671 46.0809 11.4001 45.9223 12.2167C45.7637 13.0474 45.732 13.8991 45.6157 14.7403C45.4959 15.606 45.3232 16.4682 45.1999 17.334C45.0166 18.6133 44.8616 19.8961 44.6889 21.1789C44.6114 21.7677 44.5198 22.3531 44.4493 22.9419C44.3823 23.4887 44.3718 24.046 44.259 24.5857C44.1991 24.8696 44.0264 25.1676 43.8185 25.3708C42.1517 26.9831 40.4637 28.5709 38.7828 30.1656C37.8455 31.0524 36.9469 31.9847 35.9602 32.8154C35.2624 33.4007 34.4519 33.8493 33.6873 34.3505C31.6821 35.6684 29.6806 36.9968 27.6649 38.2971C26.361 39.1383 25.036 39.948 23.7216 40.7716C23.119 41.1466 22.5446 41.024 21.9949 40.663C19.8382 39.2435 17.6922 37.8134 15.5355 36.3974C13.8159 35.2688 12.0751 34.1718 10.3624 33.0292C9.92547 32.7383 9.55546 32.3422 9.1643 31.9882C8.39609 31.2907 7.6173 30.6002 6.87023 29.8782C5.57695 28.634 4.31539 27.3546 3.01859 26.1174C2.54638 25.6653 1.96846 25.3042 1.80988 24.6243C1.67598 24.0635 1.60902 23.4887 1.51035 22.9209C1.52445 22.9104 1.53854 22.9069 1.54912 22.9069ZM21.4663 23.7621C17.5019 20.4674 13.5445 17.1798 9.50965 13.829C10.2285 19.2582 10.9368 24.5857 11.6522 29.9869C14.933 27.9049 18.175 25.851 21.4663 23.7621ZM24.5955 23.7936C27.8516 25.8615 31.0795 27.9119 34.3674 29.9974C35.0792 24.6068 35.7769 19.3108 36.4923 13.9061C32.475 17.2463 28.5705 20.4919 24.5955 23.7936ZM23.9612 21.8939C27.9468 18.6028 31.8513 15.3817 35.7875 12.1291C34.9136 11.8908 34.1524 11.6805 33.3842 11.4772C30.3431 10.6675 27.3054 9.86491 24.2643 9.05176C23.9965 8.97815 24 9.13237 24 9.31113C23.9894 11.1127 23.9718 12.9142 23.9683 14.7158C23.9612 16.8538 23.9648 18.9953 23.9612 21.1333C23.9612 21.3542 23.9612 21.5715 23.9612 21.8939ZM10.299 12.1046C14.2564 15.3817 18.1432 18.5993 22.1182 21.8904C22.1182 21.2175 22.1182 20.6987 22.1182 20.18C22.1218 16.5769 22.1288 12.9738 22.1323 9.36721C22.1323 9.18845 22.1993 8.95011 21.8469 9.04124C20.4162 9.41978 18.9784 9.78079 17.5477 10.1628C15.6201 10.6746 13.6996 11.1968 11.772 11.7155C11.3139 11.8417 10.8487 11.9609 10.299 12.1046ZM23.9577 36.9512C24.0775 36.9021 24.1691 36.8776 24.2467 36.8285C26.8896 35.0866 29.5325 33.3446 32.172 31.6027C32.8204 31.175 32.8168 31.175 32.1755 30.7685C29.8004 29.2543 27.4252 27.7367 25.0501 26.226C24.7048 26.0087 24.3524 25.802 23.9577 25.5601C23.9577 29.3805 23.9577 33.1343 23.9577 36.9512ZM22.0654 25.5601C21.9773 25.6057 21.9244 25.6267 21.8751 25.6582C19.0947 27.4318 16.3143 29.2053 13.5269 30.9753C13.2485 31.1505 13.3437 31.2451 13.5481 31.3818C15.4615 32.6471 17.368 33.9159 19.2815 35.1812C20.1906 35.7806 21.1033 36.3729 22.0654 37.0038C22.0654 33.1589 22.0654 29.3805 22.0654 25.5601ZM10.6937 3.55949C10.6549 3.61207 10.6373 3.62609 10.6338 3.64361C10.2602 5.76061 9.8867 7.88111 9.51317 9.9981C9.46031 10.303 9.54841 10.3907 9.87261 10.303C11.9764 9.74574 14.0837 9.20598 16.191 8.6557C17.2411 8.38232 18.2912 8.09841 19.5 7.77946C16.4941 6.33542 13.5974 4.95096 10.6937 3.55949ZM26.6887 7.6708C26.6887 7.71637 26.6887 7.76194 26.6887 7.8075C29.9766 8.67323 33.2644 9.53544 36.6015 10.4117C36.5698 10.1313 36.5557 9.94202 36.524 9.75626C36.1857 7.79699 35.8333 5.83772 35.5056 3.87494C35.4598 3.59805 35.4104 3.55949 35.1532 3.68217C32.8204 4.81427 30.4805 5.93585 28.1406 7.05043C27.6649 7.27825 27.1715 7.46401 26.6887 7.6708ZM36.5029 27.9645C36.6262 27.8909 36.7284 27.8488 36.7989 27.7787C38.2613 26.3873 39.7272 24.9958 41.1791 23.5903C41.2637 23.5062 41.2989 23.3029 41.2637 23.1802C41.1474 22.7842 40.9959 22.3986 40.8478 22.0131C40.0303 19.9171 39.2092 17.8212 38.3846 15.7252C38.3494 15.6376 38.2965 15.557 38.2542 15.4728C38.2225 15.4763 38.1873 15.4834 38.1556 15.4869C37.6058 19.6262 37.0596 23.7656 36.5029 27.9645ZM7.90274 15.5289C7.86398 15.5254 7.82169 15.5219 7.78293 15.5184C7.74064 15.6095 7.6913 15.6972 7.65254 15.7918C7.38472 16.4823 7.11691 17.1727 6.84909 17.8632C6.16897 19.6192 5.48181 21.3752 4.81931 23.1382C4.76998 23.2714 4.84398 23.5167 4.9497 23.6254C5.60867 24.2913 6.29231 24.9327 6.9689 25.5811C7.80055 26.3768 8.63924 27.1724 9.5625 28.0521C8.99515 23.7901 8.44895 19.6613 7.90274 15.5289ZM7.02881 12.5322C5.93992 12.4621 4.95675 12.4095 3.97005 12.3359C3.25822 12.2833 3.27231 12.2728 3.36393 12.9598C3.57889 14.5791 3.77623 16.2019 3.98414 17.8247C4.04757 18.3119 4.11805 18.799 4.18853 19.2862C4.23082 19.2932 4.2731 19.3003 4.31539 19.3073C5.21047 17.0606 6.10907 14.8174 7.02881 12.5322ZM41.7993 19.4054C41.8557 19.1846 41.8909 19.0829 41.9015 18.9813C42.1834 16.8258 42.4618 14.6702 42.7367 12.5147C42.7437 12.4516 42.6521 12.3114 42.6098 12.3149C41.4962 12.371 40.3862 12.4375 39.2762 12.5252C39.2198 12.5287 39.107 12.732 39.1317 12.7951C39.7907 14.4669 40.4673 16.1353 41.1403 17.8036C41.3377 18.3048 41.5456 18.799 41.7993 19.4054ZM41.8416 10.4888C40.4496 8.89404 39.1176 7.36938 37.7891 5.84823C37.7468 6.12161 37.7926 6.34944 37.8314 6.58077C38.0463 7.84255 38.2507 9.10083 38.4798 10.3591C38.5009 10.4713 38.6595 10.65 38.7511 10.6465C39.7554 10.615 40.7562 10.5484 41.8416 10.4888ZM4.34711 10.5098C5.3479 10.5589 6.32402 10.6185 7.30015 10.6465C7.41644 10.65 7.6173 10.4818 7.63845 10.3696C7.87102 9.15341 8.07894 7.93017 8.29037 6.71045C8.33618 6.43706 8.3679 6.16017 8.4278 5.7536C7.00767 7.40443 5.6862 8.94661 4.34711 10.5098Z" fill="#ECF2FA"/>
</svg>
