<?xml version="1.0" encoding="utf-8"?>
<!-- Generator: Adobe Illustrator 27.7.0, SVG Export Plug-In . SVG Version: 6.00 Build 0)  -->
<svg version="1.1" id="Layer_1" xmlns="http://www.w3.org/2000/svg" xmlns:xlink="http://www.w3.org/1999/xlink" x="0px" y="0px"
	 viewBox="0 0 612 792" style="enable-background:new 0 0 612 792;" xml:space="preserve">
<style type="text/css">
	.st0{fill:#9078B6;}
</style>
<path class="st0" d="M102.1,249.9c-0.42-3-0.86-6-1.27-9c-0.26-1.93-0.48-3.87-0.74-5.8c-0.36-2.71-0.75-5.42-1.12-8.12
	c-0.35-2.6-0.69-5.2-1.04-7.81c-0.24-1.82-0.57-3.68,0.69-5.26c1.12-1.41,2.35-2.72,3.53-4.09c2.22-2.58,4.42-5.18,6.64-7.75
	c1.98-2.29,4-4.55,5.98-6.83c2.62-3.03,5.22-6.08,7.85-9.09c1.06-1.22,2.89-2.05,4.59-1.3c3.84,1.7,7.62,3.52,11.4,5.34
	c7.86,3.79,15.7,7.63,23.58,11.37c0.51,0.24,1.41-0.02,2.01-0.3c3.87-1.82,7.7-3.72,11.54-5.58c7.27-3.52,14.54-7.04,21.82-10.55
	c2.07-1,3.96-0.74,5.49,0.94c2.78,3.04,5.46,6.18,8.19,9.28c2.45,2.78,4.91,5.54,7.34,8.33c2.73,3.14,5.43,6.31,8.15,9.46
	c1.59,1.85,1.74,3.93,1.29,6.26c-0.45,2.37-0.54,4.8-0.87,7.2c-0.34,2.47-0.83,4.93-1.18,7.4c-0.52,3.65-0.96,7.31-1.45,10.97
	c-0.22,1.68-0.48,3.35-0.68,5.03c-0.19,1.56-0.22,3.15-0.54,4.69c-0.17,0.81-0.66,1.66-1.25,2.24c-4.73,4.6-9.52,9.13-14.29,13.68
	c-2.66,2.53-5.21,5.19-8.01,7.56c-1.98,1.67-4.28,2.95-6.45,4.38c-5.69,3.76-11.37,7.55-17.09,11.26c-3.7,2.4-7.46,4.71-11.19,7.06
	c-1.71,1.07-3.34,0.72-4.9-0.31c-6.12-4.05-12.21-8.13-18.33-12.17c-4.88-3.22-9.82-6.35-14.68-9.61c-1.24-0.83-2.29-1.96-3.4-2.97
	c-2.18-1.99-4.39-3.96-6.51-6.02c-3.67-3.55-7.25-7.2-10.93-10.73c-1.34-1.29-2.98-2.32-3.43-4.26c-0.38-1.6-0.57-3.24-0.85-4.86
	C102.03,249.91,102.07,249.9,102.1,249.9z M158.62,252.34c-11.25-9.4-22.48-18.78-33.93-28.34c2.04,15.49,4.05,30.69,6.08,46.1
	C140.08,264.16,149.28,258.3,158.62,252.34z M167.5,252.43c9.24,5.9,18.4,11.75,27.73,17.7c2.02-15.38,4-30.49,6.03-45.91
	C189.86,233.75,178.78,243.01,167.5,252.43z M165.7,247.01c11.31-9.39,22.39-18.58,33.56-27.86c-2.48-0.68-4.64-1.28-6.82-1.86
	c-8.63-2.31-17.25-4.6-25.88-6.92c-0.76-0.21-0.75,0.23-0.75,0.74c-0.03,5.14-0.08,10.28-0.09,15.42
	c-0.02,6.1-0.01,12.21-0.02,18.31C165.7,245.47,165.7,246.09,165.7,247.01z M126.93,219.08c11.23,9.35,22.26,18.53,33.54,27.92
	c0-1.92,0-3.4,0-4.88c0.01-10.28,0.03-20.56,0.04-30.85c0-0.51,0.19-1.19-0.81-0.93c-4.06,1.08-8.14,2.11-12.2,3.2
	c-5.47,1.46-10.92,2.95-16.39,4.43C129.81,218.33,128.49,218.67,126.93,219.08z M165.69,289.97c0.34-0.14,0.6-0.21,0.82-0.35
	c7.5-4.97,15-9.94,22.49-14.91c1.84-1.22,1.83-1.22,0.01-2.38c-6.74-4.32-13.48-8.65-20.22-12.96c-0.98-0.62-1.98-1.21-3.1-1.9
	C165.69,268.37,165.69,279.08,165.69,289.97z M160.32,257.47c-0.25,0.13-0.4,0.19-0.54,0.28c-7.89,5.06-15.78,10.12-23.69,15.17
	c-0.79,0.5-0.52,0.77,0.06,1.16c5.43,3.61,10.84,7.23,16.27,10.84c2.58,1.71,5.17,3.4,7.9,5.2
	C160.32,279.15,160.32,268.37,160.32,257.47z M128.05,194.7c-0.11,0.15-0.16,0.19-0.17,0.24c-1.06,6.04-2.12,12.09-3.18,18.13
	c-0.15,0.87,0.1,1.12,1.02,0.87c5.97-1.59,11.95-3.13,17.93-4.7c2.98-0.78,5.96-1.59,9.39-2.5
	C144.51,202.62,136.29,198.67,128.05,194.7z M173.44,206.43c0,0.13,0,0.26,0,0.39c9.33,2.47,18.66,4.93,28.13,7.43
	c-0.09-0.8-0.13-1.34-0.22-1.87c-0.96-5.59-1.96-11.18-2.89-16.78c-0.13-0.79-0.27-0.9-1-0.55c-6.62,3.23-13.26,6.43-19.9,9.61
	C176.21,205.31,174.81,205.84,173.44,206.43z M201.29,264.33c0.35-0.21,0.64-0.33,0.84-0.53c4.15-3.97,8.31-7.94,12.43-11.95
	c0.24-0.24,0.34-0.82,0.24-1.17c-0.33-1.13-0.76-2.23-1.18-3.33c-2.32-5.98-4.65-11.96-6.99-17.94c-0.1-0.25-0.25-0.48-0.37-0.72
	c-0.09,0.01-0.19,0.03-0.28,0.04C204.42,240.54,202.87,252.35,201.29,264.33z M120.13,228.85c-0.11-0.01-0.23-0.02-0.34-0.03
	c-0.12,0.26-0.26,0.51-0.37,0.78c-0.76,1.97-1.52,3.94-2.28,5.91c-1.93,5.01-3.88,10.02-5.76,15.05c-0.14,0.38,0.07,1.08,0.37,1.39
	c1.87,1.9,3.81,3.73,5.73,5.58c2.36,2.27,4.74,4.54,7.36,7.05C123.23,252.42,121.68,240.64,120.13,228.85z M117.65,220.3
	c-3.09-0.2-5.88-0.35-8.68-0.56c-2.02-0.15-1.98-0.18-1.72,1.78c0.61,4.62,1.17,9.25,1.76,13.88c0.18,1.39,0.38,2.78,0.58,4.17
	c0.12,0.02,0.24,0.04,0.36,0.06C112.49,233.22,115.04,226.82,117.65,220.3z M216.32,239.91c0.16-0.63,0.26-0.92,0.29-1.21
	c0.8-6.15,1.59-12.3,2.37-18.45c0.02-0.18-0.24-0.58-0.36-0.57c-3.16,0.16-6.31,0.35-9.46,0.6c-0.16,0.01-0.48,0.59-0.41,0.77
	c1.87,4.77,3.79,9.53,5.7,14.29C215.01,236.77,215.6,238.18,216.32,239.91z M216.44,214.47c-3.95-4.55-7.73-8.9-11.5-13.24
	c-0.12,0.78,0.01,1.43,0.12,2.09c0.61,3.6,1.19,7.19,1.84,10.78c0.06,0.32,0.51,0.83,0.77,0.82
	C210.52,214.83,213.36,214.64,216.44,214.47z M110.04,214.53c2.84,0.14,5.61,0.31,8.38,0.39c0.33,0.01,0.9-0.47,0.96-0.79
	c0.66-3.47,1.25-6.96,1.85-10.44c0.13-0.78,0.22-1.57,0.39-2.73C117.59,205.67,113.84,210.07,110.04,214.53z"/>
<path class="st0" d="M515.09,210.54c0-1.37,0-2.48,0-3.59c-0.02-4.12-0.09-8.24-0.03-12.35c0.05-3.53,2.21-6.25,6.05-6.52
	c2.82-0.2,5.87,2.18,5.97,4.99c0.21,5.71,0.29,11.42,0.32,17.13c0.05,7.84-0.03,15.68,0.03,23.52c0.04,4.85-0.84,9.52-2.66,14
	c-2.85,7.01-7.62,12.42-14.33,15.93c-5.99,3.14-12.39,4.35-19.2,3.49c-8.15-1.03-14.73-4.96-20.02-10.96
	c-4.02-4.56-6.43-10.03-7.27-16.13c-0.59-4.29-0.22-8.46,0.86-12.67c1-3.87,2.66-7.37,4.99-10.53c3.15-4.29,7.11-7.6,12.03-9.87
	c4.17-1.93,8.47-2.86,12.99-3.05c5.01-0.2,9.72,1.05,14.23,3.07c1.66,0.74,3.15,1.86,4.72,2.8
	C514.14,210.02,514.51,210.21,515.09,210.54z M515.04,235.48c0.22-10.55-8.75-19.52-19.61-19.46c-10.74,0.06-19.24,8.53-19.58,18.9
	c-0.36,11.09,9.1,20.34,19.33,20.23C506.01,255.03,515.19,247.05,515.04,235.48z"/>
<path class="st0" d="M269.2,224.91c0,0.31,0,0.63,0,0.94c0,11.5,0.01,22.99-0.01,34.49c0,2.37-0.66,4.5-2.82,5.87
	c-1.87,1.19-3.85,1.47-5.86,0.5c-2.18-1.05-3.44-2.84-3.44-5.28c-0.03-17.16-0.01-34.32-0.03-51.48c0-4.49,4.07-7.02,7.73-5.79
	c1.62,0.54,3.07,1.87,4.34,3.1c5.01,4.87,9.9,9.86,14.87,14.77c1.86,1.84,4,3.31,6.74,2.16c1.36-0.57,2.61-1.58,3.68-2.62
	c5.25-5.14,10.41-10.37,15.63-15.55c3.29-3.27,7.9-2.86,10.12,1.04c0.65,1.15,0.95,2.65,0.95,4c0.05,15.31,0.02,30.63-0.03,45.94
	c-0.01,1.99-0.04,4.03-0.46,5.97c-0.61,2.86-3.05,4.48-6.45,4.23c-2.2-0.16-4.26-1.69-4.93-4.41c-0.22-0.91-0.33-1.88-0.33-2.82
	c-0.02-11.17-0.01-22.33-0.02-33.5c0-0.41-0.1-0.82-0.15-1.23c-0.17-0.11-0.33-0.22-0.5-0.34c-1.1,1.24-2.14,2.54-3.32,3.71
	c-2,1.98-3.92,4.12-6.19,5.74c-3.36,2.41-7.18,3.57-11.45,2.94c-3.43-0.51-6.54-1.61-9.08-4.02c-2.62-2.48-5.22-4.98-7.8-7.5
	c-0.32-0.31-0.5-0.77-0.74-1.16C269.49,224.7,269.34,224.8,269.2,224.91z"/>
<path class="st0" d="M392.7,236.12c-0.4,18.08-13.67,29.96-29.31,31.2c-19.34,1.53-35.15-14.56-34.19-33.11
	c0.87-16.63,14.2-31.07,33.77-30.33C378.72,204.49,392.88,217.59,392.7,236.12z M380.64,236.23c0.48-11.53-9.46-19.94-19.28-20.09
	c-10.78-0.17-20.29,8.29-19.99,20.12c0.25,9.9,8.5,18.92,19.72,18.92C371.62,255.16,380.42,246.68,380.64,236.23z"/>
<path class="st0" d="M426.82,267.44c-17.18-0.34-30.97-13.93-31.42-30.71c-0.5-18.58,13.82-33.03,32.55-32.83
	c16.62,0.18,31.11,13.34,30.97,32.01C458.8,253.5,445.09,267.32,426.82,267.44z M446.82,235.5c0.12-10.58-9.25-19.42-19.55-19.37
	c-11.29,0.06-19.89,8.86-19.69,20.09c0.18,10.05,9.32,19.37,20.03,18.96C438.05,254.78,446.97,246.73,446.82,235.5z"/>
<path class="st0" d="M306.37,297.91c-0.33-0.06-0.56-0.17-0.75-0.12c-1.78,0.45-2.46-0.76-3.18-1.99c-0.85-1.46-1.75-2.88-2.66-4.31
	c-0.41-0.64-2.72-1.16-3.3-0.73c-0.14,0.11-0.16,0.44-0.16,0.67c-0.01,1.7-0.03,3.41,0,5.11c0.02,0.98-0.04,1.76-1.38,1.28
	c-0.32-0.11-0.7-0.05-1.07-0.07c0-5.84,0-11.63,0-17.57c3.1,0.19,6.28-0.4,9.32,0.84c1.98,0.8,2.34,3.05,2.13,5.12
	c-0.2,1.94-1.13,3.34-3.16,3.8c-0.14,0.03-0.24,0.21-0.3,0.26c1.46,2.36,2.91,4.68,4.34,7.01
	C306.31,297.38,306.3,297.62,306.37,297.91z M296.31,285.3c0,0.8-0.06,1.6,0.03,2.39c0.03,0.28,0.45,0.7,0.71,0.72
	c1.01,0.07,2.04,0.03,3.05-0.02c1.91-0.1,2.82-1.13,2.82-3.08c0-1.91-0.82-2.74-2.82-2.87c-0.38-0.03-0.76-0.09-1.15-0.12
	c-2.65-0.18-2.65-0.18-2.65,2.41C296.31,284.92,296.31,285.11,296.31,285.3z"/>
<path class="st0" d="M479.63,290.24c1.59,2.52,3.12,4.94,4.66,7.39c-1.97,0.52-2.64,0.23-3.67-1.4c-1.09-1.73-2.1-3.55-3.45-5.05
	c-0.5-0.56-1.88-0.35-2.87-0.4c-0.06,0-0.23,0.79-0.24,1.21c-0.03,1.57-0.07,3.14,0.01,4.7c0.05,0.92-0.23,1.24-1.13,1.11
	c-0.37-0.06-0.76-0.01-1.22-0.01c0-0.68,0-1.36,0-2.04c0-4.92-0.01-9.84,0.02-14.76c0-0.27,0.39-0.77,0.58-0.76
	c2.42,0.09,4.84,0.12,7.24,0.43c2.09,0.27,3.33,1.75,3.55,3.73c0.29,2.6-0.57,4.43-2.54,5.37
	C480.28,289.88,480,290.04,479.63,290.24z M474.04,285.34c0,3.1,0,3.1,3.11,3.07c0.28,0,0.55,0,0.83-0.02
	c1.64-0.12,2.63-1.15,2.68-2.77c0.07-2.03-0.57-2.88-2.4-3.14c-0.65-0.09-1.31-0.15-1.97-0.18c-2.25-0.12-2.25-0.12-2.25,2.13
	C474.04,284.74,474.04,285.04,474.04,285.34z"/>
<path class="st0" d="M414.7,280.5c-1.5,1.73-2.99,3.46-4.49,5.18c-0.47,0.54-0.9,1.13-1.46,1.56c-1.17,0.91-0.55,1.59,0.12,2.39
	c1.94,2.34,3.83,4.71,5.73,7.08c0.2,0.25,0.34,0.55,0.5,0.83c-1.38,0.67-2.86,0.32-3.74-0.82c-1.55-2-3.1-4-4.69-5.96
	c-0.14-0.18-0.87-0.19-0.93-0.07c-0.44,0.81-0.95,1.64-1.09,2.52c-0.18,1.18-0.08,2.41-0.02,3.62c0.04,0.74-0.16,1.06-0.95,0.95
	c-0.42-0.06-0.86,0.04-1.4,0.07c0-0.4,0-0.81,0-1.21c0-5.19,0.03-10.39-0.01-15.58c-0.01-1.24,0.88-0.85,1.42-0.84
	c0.31,0,0.87,0.52,0.88,0.83c0.08,2.17,0.04,4.34,0.04,6.51c0,0.28,0.03,0.56,0.07,1.09c1.1-1.26,2.01-2.31,2.93-3.37
	c1.34-1.54,2.56-3.22,4.08-4.57c0.63-0.56,1.9-0.39,2.88-0.56C414.6,280.28,414.65,280.39,414.7,280.5z"/>
<path class="st0" d="M446.91,287.42c0,0.5,0.05,1.1-0.03,1.69c-0.03,0.18-0.44,0.42-0.68,0.42c-1.9,0.03-3.8,0-5.7,0.05
	c-0.24,0.01-0.65,0.42-0.66,0.66c-0.06,1.51-0.06,3.02,0,4.53c0.01,0.26,0.45,0.7,0.7,0.71c2.28,0.05,4.57,0,6.86,0.06
	c0.28,0.01,0.79,0.49,0.77,0.73c-0.04,0.55,0.55,1.5-0.71,1.52c-2.75,0.05-5.49,0.13-8.24,0.16c-0.62,0.01-1.23-0.16-1.88-0.26
	c0-5.81,0-11.59,0-17.47c1.44,0,2.9,0,4.35,0c1.76,0,3.53,0.03,5.29-0.02c0.85-0.02,1.13,0.25,1.13,1.13c0,0.87-0.34,1.08-1.11,1.07
	c-2.15-0.02-4.3-0.03-6.44,0.03c-0.26,0.01-0.69,0.44-0.71,0.7c-0.08,1.07,0,2.14-0.05,3.21c-0.04,0.81,0.35,1.08,1.08,1.08
	C442.86,287.42,444.83,287.42,446.91,287.42z"/>
<path class="st0" d="M327.3,297.77c0.59-1.7,1.14-3.22,1.66-4.75c1.33-3.9,2.66-7.81,3.95-11.72c0.24-0.74,0.6-0.96,1.39-1.03
	c1.63-0.15,2.32,0.38,2.83,2.04c1.55,5.06,3.39,10.02,5.11,15.03c0.05,0.15,0.01,0.33,0.01,0.5c-0.83-0.2-2.01-0.13-2.41-0.65
	c-0.7-0.9-0.87-2.19-1.36-3.28c-0.14-0.31-0.64-0.62-0.99-0.64c-1.56-0.09-3.15,0.04-4.7-0.12c-1.26-0.13-1.81,0.37-2.08,1.48
	c-0.21,0.87-0.43,1.74-0.72,2.59c-0.08,0.23-0.39,0.5-0.63,0.53C328.75,297.82,328.11,297.77,327.3,297.77z M334.86,282.49
	c-1.03,3.06-1.93,5.74-2.86,8.49c1.91,0,3.72,0,5.64,0C336.73,288.19,335.85,285.51,334.86,282.49z"/>
<path class="st0" d="M376.18,284.67c-1.18-2.04-2.89-2.86-5.27-2.44c-2.68,0.48-3.33,2.01-3.77,4.15c-0.33,1.59-0.18,3.32-0.05,4.96
	c0.14,1.78,0.98,3.45,2.6,4.13c1.84,0.77,3.88,0.73,5.59-0.68c0.27-0.22,0.43-0.57,0.68-0.81c0.73-0.7,1.37-0.2,1.83,0.31
	c0.21,0.23,0.21,0.93,0.01,1.19c-1.17,1.58-2.72,2.41-4.76,2.5c-1.88,0.08-3.71,0.05-5.33-0.98c-1.89-1.21-2.76-3.05-3.15-5.21
	c-0.48-2.62-0.35-5.22,0.57-7.69c1.68-4.51,6.39-4.93,10.12-3.39c0.84,0.35,1.51,1.1,2.25,1.67c0.71,0.56,0.45,0.97-0.19,1.38
	C376.92,284.02,376.59,284.34,376.18,284.67z"/>
<path class="st0" d="M262.91,290.13c0-2.23-0.01-4.45,0.01-6.68c0.01-0.72-0.17-1.08-1.01-1.04c-1.37,0.07-2.75,0.05-4.12-0.01
	c-0.28-0.01-0.8-0.41-0.77-0.52c0.15-0.58,0.43-1.59,0.68-1.6c4.26-0.1,8.53-0.09,12.8-0.03c0.22,0,0.6,0.65,0.59,0.99
	c-0.01,0.37-0.37,1.03-0.62,1.05c-1.45,0.13-2.91,0.07-4.36,0.16c-0.26,0.02-0.69,0.47-0.7,0.72c-0.04,4.45-0.03,8.9-0.01,13.35
	c0,0.78-0.07,1.35-1.09,1.3c-0.84-0.04-1.51,0.08-1.43-1.2C262.99,294.47,262.9,292.3,262.91,290.13
	C262.9,290.13,262.9,290.13,262.91,290.13z"/>
</svg>
